<svg width="248" height="38" viewBox="0 0 248 38" fill="none" xmlns="http://www.w3.org/2000/svg">
<g id="logo">
<path id="UI/UX Designer" d="M144.195 18.5781V25.9688C144.195 27.2708 143.802 28.2943 143.016 29.0391C142.229 29.7839 141.148 30.1562 139.773 30.1562C138.398 30.1562 137.333 29.7812 136.578 29.0312C135.828 28.2812 135.453 27.25 135.453 25.9375V18.5781H136.781V26.0312C136.781 26.9844 137.042 27.7161 137.562 28.2266C138.083 28.737 138.849 28.9922 139.859 28.9922C140.823 28.9922 141.565 28.737 142.086 28.2266C142.607 27.7109 142.867 26.974 142.867 26.0156V18.5781H144.195ZM147.227 30V18.5781H148.555V30H147.227ZM155.836 18.5781L151.578 30H150.281L154.539 18.5781H155.836ZM166.195 18.5781V25.9688C166.195 27.2708 165.802 28.2943 165.016 29.0391C164.229 29.7839 163.148 30.1562 161.773 30.1562C160.398 30.1562 159.333 29.7812 158.578 29.0312C157.828 28.2812 157.453 27.25 157.453 25.9375V18.5781H158.781V26.0312C158.781 26.9844 159.042 27.7161 159.562 28.2266C160.083 28.737 160.849 28.9922 161.859 28.9922C162.823 28.9922 163.565 28.737 164.086 28.2266C164.607 27.7109 164.867 26.974 164.867 26.0156V18.5781H166.195ZM176.828 30H175.32L172.25 24.9766L169.125 30H167.719L171.516 24.0312L167.977 18.5781H169.445L172.281 23.1016L175.141 18.5781H176.555L173.016 23.9844L176.828 30ZM191.734 24.1797C191.734 26.0651 191.221 27.5078 190.195 28.5078C189.174 29.5026 187.703 30 185.781 30H182.617V18.5781H186.117C187.893 18.5781 189.273 19.0703 190.258 20.0547C191.242 21.0391 191.734 22.4141 191.734 24.1797ZM190.328 24.2266C190.328 22.737 189.953 21.6146 189.203 20.8594C188.458 20.1042 187.349 19.7266 185.875 19.7266H183.945V28.8516H185.562C187.146 28.8516 188.336 28.4635 189.133 27.6875C189.93 26.9062 190.328 25.7526 190.328 24.2266ZM197.711 30.1562C196.445 30.1562 195.445 29.7708 194.711 29C193.982 28.2292 193.617 27.1589 193.617 25.7891C193.617 24.4089 193.956 23.3125 194.633 22.5C195.315 21.6875 196.229 21.2812 197.375 21.2812C198.448 21.2812 199.297 21.6354 199.922 22.3438C200.547 23.0469 200.859 23.9766 200.859 25.1328V25.9531H194.961C194.987 26.9583 195.24 27.7214 195.719 28.2422C196.203 28.763 196.883 29.0234 197.758 29.0234C198.68 29.0234 199.591 28.8307 200.492 28.4453V29.6016C200.034 29.7995 199.599 29.9401 199.188 30.0234C198.781 30.112 198.289 30.1562 197.711 30.1562ZM197.359 22.3672C196.672 22.3672 196.122 22.5911 195.711 23.0391C195.305 23.487 195.065 24.1068 194.992 24.8984H199.469C199.469 24.0807 199.286 23.4557 198.922 23.0234C198.557 22.5859 198.036 22.3672 197.359 22.3672ZM208.602 27.6641C208.602 28.4609 208.305 29.0755 207.711 29.5078C207.117 29.9401 206.284 30.1562 205.211 30.1562C204.076 30.1562 203.19 29.9766 202.555 29.6172V28.4141C202.966 28.6224 203.406 28.7865 203.875 28.9062C204.349 29.026 204.805 29.0859 205.242 29.0859C205.919 29.0859 206.44 28.9792 206.805 28.7656C207.169 28.5469 207.352 28.2161 207.352 27.7734C207.352 27.4401 207.206 27.1562 206.914 26.9219C206.628 26.6823 206.065 26.401 205.227 26.0781C204.43 25.7812 203.862 25.5234 203.523 25.3047C203.19 25.0807 202.94 24.8281 202.773 24.5469C202.612 24.2656 202.531 23.9297 202.531 23.5391C202.531 22.8411 202.815 22.2917 203.383 21.8906C203.951 21.4844 204.729 21.2812 205.719 21.2812C206.641 21.2812 207.542 21.4688 208.422 21.8438L207.961 22.8984C207.102 22.5443 206.323 22.3672 205.625 22.3672C205.01 22.3672 204.547 22.4635 204.234 22.6562C203.922 22.849 203.766 23.1146 203.766 23.4531C203.766 23.6823 203.823 23.8776 203.938 24.0391C204.057 24.2005 204.247 24.3542 204.508 24.5C204.768 24.6458 205.268 24.8568 206.008 25.1328C207.023 25.5026 207.708 25.875 208.062 26.25C208.422 26.625 208.602 27.0964 208.602 27.6641ZM212.016 30H210.719V21.4375H212.016V30ZM210.609 19.1172C210.609 18.8203 210.682 18.6042 210.828 18.4688C210.974 18.3281 211.156 18.2578 211.375 18.2578C211.583 18.2578 211.763 18.3281 211.914 18.4688C212.065 18.6094 212.141 18.8255 212.141 19.1172C212.141 19.4089 212.065 19.6276 211.914 19.7734C211.763 19.9141 211.583 19.9844 211.375 19.9844C211.156 19.9844 210.974 19.9141 210.828 19.7734C210.682 19.6276 210.609 19.4089 210.609 19.1172ZM221.773 21.4375V22.2578L220.188 22.4453C220.333 22.6276 220.464 22.8672 220.578 23.1641C220.693 23.4557 220.75 23.7865 220.75 24.1562C220.75 24.9948 220.464 25.6641 219.891 26.1641C219.318 26.6641 218.531 26.9141 217.531 26.9141C217.276 26.9141 217.036 26.8932 216.812 26.8516C216.26 27.1432 215.984 27.5104 215.984 27.9531C215.984 28.1875 216.081 28.362 216.273 28.4766C216.466 28.5859 216.797 28.6406 217.266 28.6406H218.781C219.708 28.6406 220.419 28.8359 220.914 29.2266C221.414 29.6172 221.664 30.1849 221.664 30.9297C221.664 31.8776 221.284 32.599 220.523 33.0938C219.763 33.5938 218.654 33.8438 217.195 33.8438C216.076 33.8438 215.211 33.6354 214.602 33.2188C213.997 32.8021 213.695 32.2135 213.695 31.4531C213.695 30.9323 213.862 30.4818 214.195 30.1016C214.529 29.7214 214.997 29.4635 215.602 29.3281C215.383 29.2292 215.198 29.0755 215.047 28.8672C214.901 28.6589 214.828 28.4167 214.828 28.1406C214.828 27.8281 214.911 27.5547 215.078 27.3203C215.245 27.0859 215.508 26.8594 215.867 26.6406C215.424 26.4583 215.062 26.1484 214.781 25.7109C214.505 25.2734 214.367 24.7734 214.367 24.2109C214.367 23.2734 214.648 22.5521 215.211 22.0469C215.773 21.5365 216.57 21.2812 217.602 21.2812C218.049 21.2812 218.453 21.3333 218.812 21.4375H221.773ZM214.945 31.4375C214.945 31.901 215.141 32.2526 215.531 32.4922C215.922 32.7318 216.482 32.8516 217.211 32.8516C218.299 32.8516 219.104 32.6875 219.625 32.3594C220.151 32.0365 220.414 31.5964 220.414 31.0391C220.414 30.5755 220.271 30.2526 219.984 30.0703C219.698 29.8932 219.159 29.8047 218.367 29.8047H216.812C216.224 29.8047 215.766 29.9453 215.438 30.2266C215.109 30.5078 214.945 30.9115 214.945 31.4375ZM215.648 24.1797C215.648 24.7786 215.818 25.2318 216.156 25.5391C216.495 25.8464 216.966 26 217.57 26C218.836 26 219.469 25.3854 219.469 24.1562C219.469 22.8698 218.828 22.2266 217.547 22.2266C216.938 22.2266 216.469 22.3906 216.141 22.7188C215.812 23.0469 215.648 23.5339 215.648 24.1797ZM229.391 30V24.4609C229.391 23.763 229.232 23.2422 228.914 22.8984C228.596 22.5547 228.099 22.3828 227.422 22.3828C226.526 22.3828 225.87 22.625 225.453 23.1094C225.036 23.5938 224.828 24.3932 224.828 25.5078V30H223.531V21.4375H224.586L224.797 22.6094H224.859C225.125 22.1875 225.497 21.862 225.977 21.6328C226.456 21.3984 226.99 21.2812 227.578 21.2812C228.609 21.2812 229.385 21.5312 229.906 22.0312C230.427 22.526 230.688 23.3203 230.688 24.4141V30H229.391ZM236.977 30.1562C235.711 30.1562 234.711 29.7708 233.977 29C233.247 28.2292 232.883 27.1589 232.883 25.7891C232.883 24.4089 233.221 23.3125 233.898 22.5C234.581 21.6875 235.495 21.2812 236.641 21.2812C237.714 21.2812 238.562 21.6354 239.188 22.3438C239.812 23.0469 240.125 23.9766 240.125 25.1328V25.9531H234.227C234.253 26.9583 234.505 27.7214 234.984 28.2422C235.469 28.763 236.148 29.0234 237.023 29.0234C237.945 29.0234 238.857 28.8307 239.758 28.4453V29.6016C239.299 29.7995 238.865 29.9401 238.453 30.0234C238.047 30.112 237.555 30.1562 236.977 30.1562ZM236.625 22.3672C235.938 22.3672 235.388 22.5911 234.977 23.0391C234.57 23.487 234.331 24.1068 234.258 24.8984H238.734C238.734 24.0807 238.552 23.4557 238.188 23.0234C237.823 22.5859 237.302 22.3672 236.625 22.3672ZM246.25 21.2812C246.63 21.2812 246.971 21.3125 247.273 21.375L247.094 22.5781C246.74 22.5 246.427 22.4609 246.156 22.4609C245.464 22.4609 244.87 22.7422 244.375 23.3047C243.885 23.8672 243.641 24.5677 243.641 25.4062V30H242.344V21.4375H243.414L243.562 23.0234H243.625C243.943 22.4661 244.326 22.0365 244.773 21.7344C245.221 21.4323 245.714 21.2812 246.25 21.2812Z" fill="#B8B8B8"/>
<path id="IvanBogar" d="M2.74805 30V10.0117H5.07227V30H2.74805ZM12.1078 30L6.42031 15.0156H8.85391L12.0805 23.9023C12.8096 25.9805 13.238 27.3294 13.3656 27.9492H13.475C13.5753 27.4661 13.8897 26.4681 14.4184 24.9551C14.9561 23.4329 16.1547 20.1198 18.0141 15.0156H20.4477L14.7602 30H12.1078ZM30.6688 30L30.2176 27.8672H30.1082C29.3608 28.806 28.6134 29.444 27.866 29.7812C27.1277 30.1094 26.2026 30.2734 25.0906 30.2734C23.6049 30.2734 22.4383 29.8906 21.5906 29.125C20.7521 28.3594 20.3328 27.2702 20.3328 25.8574C20.3328 22.8314 22.7527 21.2454 27.5926 21.0996L30.1355 21.0176V20.0879C30.1355 18.9121 29.8803 18.0462 29.3699 17.4902C28.8686 16.9251 28.062 16.6426 26.95 16.6426C25.7013 16.6426 24.2885 17.0254 22.7117 17.791L22.0145 16.0547C22.7527 15.6536 23.5594 15.3392 24.4344 15.1113C25.3185 14.8835 26.2026 14.7695 27.0867 14.7695C28.8732 14.7695 30.1948 15.166 31.0516 15.959C31.9174 16.752 32.3504 18.0234 32.3504 19.7734V30H30.6688ZM25.5418 28.4004C26.9546 28.4004 28.062 28.013 28.8641 27.2383C29.6753 26.4635 30.0809 25.3789 30.0809 23.9844V22.6309L27.8113 22.7266C26.0066 22.7904 24.7033 23.0729 23.9012 23.5742C23.1082 24.0664 22.7117 24.8366 22.7117 25.8848C22.7117 26.7051 22.9578 27.3294 23.45 27.7578C23.9513 28.1862 24.6486 28.4004 25.5418 28.4004ZM45.8937 30V20.3066C45.8937 19.0853 45.6158 18.1738 45.0598 17.5723C44.5038 16.9707 43.6333 16.6699 42.4484 16.6699C40.8807 16.6699 39.7323 17.0938 39.0031 17.9414C38.274 18.7891 37.9094 20.1882 37.9094 22.1387V30H35.6398V15.0156H37.4855L37.8547 17.0664H37.9641C38.4289 16.3281 39.0806 15.7585 39.9191 15.3574C40.7577 14.9473 41.6919 14.7422 42.7219 14.7422C44.5266 14.7422 45.8846 15.1797 46.7961 16.0547C47.7076 16.9206 48.1633 18.3105 48.1633 20.2246V30H45.8937ZM51.5484 10.0117H57.7691C60.6038 10.0117 62.6591 10.4173 63.9352 11.2285C65.2203 12.0306 65.8629 13.3112 65.8629 15.0703C65.8629 16.2643 65.5803 17.2441 65.0152 18.0098C64.4592 18.7754 63.7164 19.2357 62.7867 19.3906V19.5273C64.0536 19.8099 64.9651 20.3385 65.5211 21.1133C66.0862 21.888 66.3688 22.918 66.3688 24.2031C66.3688 26.026 65.7079 27.4479 64.3863 28.4688C63.0738 29.4896 61.2874 30 59.027 30H51.5484V10.0117ZM55.7867 17.9277H58.2477C59.3961 17.9277 60.2255 17.75 60.7359 17.3945C61.2555 17.0391 61.5152 16.4512 61.5152 15.6309C61.5152 14.8652 61.2327 14.3184 60.6676 13.9902C60.1116 13.653 59.2275 13.4844 58.0152 13.4844H55.7867V17.9277ZM55.7867 21.291V26.5H58.5484C59.7151 26.5 60.5764 26.2767 61.1324 25.8301C61.6884 25.3835 61.9664 24.6999 61.9664 23.7793C61.9664 22.1204 60.7815 21.291 58.4117 21.291H55.7867ZM71.9551 22.3301C71.9551 23.8431 72.2012 24.987 72.6934 25.7617C73.1947 26.5365 74.0059 26.9238 75.127 26.9238C76.2389 26.9238 77.0365 26.541 77.5195 25.7754C78.0117 25.0007 78.2578 23.8522 78.2578 22.3301C78.2578 20.8171 78.0117 19.6823 77.5195 18.9258C77.0273 18.1693 76.2207 17.791 75.0996 17.791C73.9876 17.791 73.1855 18.1693 72.6934 18.9258C72.2012 19.6732 71.9551 20.8079 71.9551 22.3301ZM82.5234 22.3301C82.5234 24.8184 81.8672 26.7643 80.5547 28.168C79.2422 29.5716 77.4147 30.2734 75.0723 30.2734C73.6048 30.2734 72.3105 29.9544 71.1895 29.3164C70.0684 28.6693 69.207 27.7441 68.6055 26.541C68.0039 25.3379 67.7031 23.9342 67.7031 22.3301C67.7031 19.8327 68.3548 17.8913 69.6582 16.5059C70.9616 15.1204 72.7936 14.4277 75.1543 14.4277C76.6217 14.4277 77.916 14.7467 79.0371 15.3848C80.1582 16.0228 81.0195 16.9388 81.6211 18.1328C82.2227 19.3268 82.5234 20.7259 82.5234 22.3301ZM97.8715 14.7148V16.834L95.4789 17.4492C95.9164 18.1328 96.1352 18.8984 96.1352 19.7461C96.1352 21.3867 95.5609 22.6673 94.4125 23.5879C93.2732 24.4993 91.6872 24.9551 89.6547 24.9551L88.9027 24.9141L88.2875 24.8457C87.8591 25.1738 87.6449 25.5384 87.6449 25.9395C87.6449 26.541 88.4105 26.8418 89.9418 26.8418H92.5395C94.2165 26.8418 95.4926 27.2018 96.3676 27.9219C97.2517 28.6419 97.6937 29.6992 97.6937 31.0938C97.6937 32.8802 96.9464 34.2656 95.4516 35.25C93.9659 36.2344 91.8285 36.7266 89.0395 36.7266C86.9066 36.7266 85.2751 36.3529 84.1449 35.6055C83.0238 34.8672 82.4633 33.8281 82.4633 32.4883C82.4633 31.5677 82.7504 30.7975 83.3246 30.1777C83.8988 29.5579 84.7419 29.1159 85.8539 28.8516C85.4255 28.6693 85.0518 28.373 84.7328 27.9629C84.4138 27.5436 84.2543 27.1016 84.2543 26.6367C84.2543 26.0534 84.4229 25.5703 84.7602 25.1875C85.0974 24.7956 85.585 24.4128 86.223 24.0391C85.421 23.6927 84.7829 23.1367 84.309 22.3711C83.8441 21.6055 83.6117 20.7031 83.6117 19.6641C83.6117 17.9961 84.154 16.7064 85.2387 15.7949C86.3233 14.8835 87.8728 14.4277 89.8871 14.4277C90.3155 14.4277 90.8214 14.4688 91.4047 14.5508C91.9971 14.6237 92.3754 14.6784 92.5395 14.7148H97.8715ZM86.0727 32.1602C86.0727 32.7344 86.3461 33.1855 86.893 33.5137C87.449 33.8418 88.2237 34.0059 89.2172 34.0059C90.712 34.0059 91.8832 33.8008 92.7309 33.3906C93.5785 32.9805 94.0023 32.4199 94.0023 31.709C94.0023 31.1348 93.7517 30.7383 93.2504 30.5195C92.7491 30.3008 91.9743 30.1914 90.9262 30.1914H88.766C88.0004 30.1914 87.3578 30.3691 86.8383 30.7246C86.3279 31.0892 86.0727 31.5677 86.0727 32.1602ZM87.5902 19.7188C87.5902 20.5482 87.7771 21.2044 88.1508 21.6875C88.5336 22.1706 89.1124 22.4121 89.8871 22.4121C90.671 22.4121 91.2452 22.1706 91.6098 21.6875C91.9743 21.2044 92.1566 20.5482 92.1566 19.7188C92.1566 17.8776 91.4001 16.957 89.8871 16.957C88.3559 16.957 87.5902 17.8776 87.5902 19.7188ZM108.708 30L107.901 27.9219H107.792C107.09 28.806 106.365 29.4212 105.618 29.7676C104.88 30.1048 103.914 30.2734 102.72 30.2734C101.252 30.2734 100.095 29.8542 99.2469 29.0156C98.4083 28.1771 97.9891 26.9831 97.9891 25.4336C97.9891 23.8112 98.5542 22.6172 99.6844 21.8516C100.824 21.0768 102.537 20.6484 104.825 20.5664L107.477 20.4844V19.8145C107.477 18.265 106.684 17.4902 105.098 17.4902C103.877 17.4902 102.442 17.8594 100.792 18.5977L99.4109 15.7812C101.17 14.8607 103.121 14.4004 105.262 14.4004C107.313 14.4004 108.886 14.847 109.979 15.7402C111.073 16.6335 111.62 17.9915 111.62 19.8145V30H108.708ZM107.477 22.918L105.864 22.9727C104.652 23.0091 103.749 23.2279 103.157 23.6289C102.565 24.0299 102.268 24.6406 102.268 25.4609C102.268 26.6367 102.943 27.2246 104.292 27.2246C105.258 27.2246 106.028 26.9466 106.602 26.3906C107.186 25.8346 107.477 25.0964 107.477 24.1758V22.918ZM123.058 14.4277C123.623 14.4277 124.092 14.4688 124.466 14.5508L124.152 18.4609C123.814 18.3698 123.404 18.3242 122.921 18.3242C121.59 18.3242 120.551 18.666 119.804 19.3496C119.066 20.0332 118.696 20.9902 118.696 22.2207V30H114.527V14.7148H117.685L118.3 17.2852H118.505C118.979 16.4284 119.617 15.7402 120.419 15.2207C121.23 14.6921 122.11 14.4277 123.058 14.4277Z" fill="#252A26"/>
</g>
</svg>
