<svg width="36" height="36" viewBox="0 0 36 36" fill="none" xmlns="http://www.w3.org/2000/svg">
<path d="M20 10.9688V3H7.5C6.66875 3 6 3.62695 6 4.40625V31.5938C6 32.373 6.66875 33 7.5 33H28.5C29.3313 33 30 32.373 30 31.5938V12.375H21.5C20.675 12.375 20 11.7422 20 10.9688ZM24 24.7969C24 25.1836 23.6625 25.5 23.25 25.5H12.75C12.3375 25.5 12 25.1836 12 24.7969V24.3281C12 23.9414 12.3375 23.625 12.75 23.625H23.25C23.6625 23.625 24 23.9414 24 24.3281V24.7969ZM24 21.0469C24 21.4336 23.6625 21.75 23.25 21.75H12.75C12.3375 21.75 12 21.4336 12 21.0469V20.5781C12 20.1914 12.3375 19.875 12.75 19.875H23.25C23.6625 19.875 24 20.1914 24 20.5781V21.0469ZM24 16.8281V17.2969C24 17.6836 23.6625 18 23.25 18H12.75C12.3375 18 12 17.6836 12 17.2969V16.8281C12 16.4414 12.3375 16.125 12.75 16.125H23.25C23.6625 16.125 24 16.4414 24 16.8281ZM30 10.1426V10.5H22V3H22.3813C22.7813 3 23.1625 3.14648 23.4438 3.41016L29.5625 9.15234C29.8438 9.41602 30 9.77344 30 10.1426Z" fill="#252A26"/>
</svg>
