<svg width="48" height="48" viewBox="0 0 48 48" fill="none" xmlns="http://www.w3.org/2000/svg">
<path d="M24.0033 16.3084C19.7468 16.3084 16.3134 19.7425 16.3134 24C16.3134 28.2575 19.7468 31.6916 24.0033 31.6916C28.2599 31.6916 31.6933 28.2575 31.6933 24C31.6933 19.7425 28.2599 16.3084 24.0033 16.3084ZM24.0033 29.0006C21.2527 29.0006 19.0039 26.758 19.0039 24C19.0039 21.242 21.246 18.9994 24.0033 18.9994C26.7607 18.9994 29.0028 21.242 29.0028 24C29.0028 26.758 26.754 29.0006 24.0033 29.0006ZM33.8015 15.9938C33.8015 16.9912 32.9983 17.7878 32.0078 17.7878C31.0106 17.7878 30.2142 16.9845 30.2142 15.9938C30.2142 15.003 31.0173 14.1997 32.0078 14.1997C32.9983 14.1997 33.8015 15.003 33.8015 15.9938ZM38.8946 17.8146C38.7808 15.4114 38.232 13.2826 36.4718 11.5287C34.7184 9.77485 32.5901 9.22593 30.1874 9.10543C27.7111 8.96486 20.2889 8.96486 17.8126 9.10543C15.4166 9.21923 13.2883 9.76816 11.5282 11.522C9.76799 13.2759 9.22588 15.4047 9.10541 17.8079C8.96486 20.2847 8.96486 27.7086 9.10541 30.1854C9.21919 32.5886 9.76799 34.7174 11.5282 36.4713C13.2883 38.2251 15.4099 38.7741 17.8126 38.8946C20.2889 39.0351 27.7111 39.0351 30.1874 38.8946C32.5901 38.7808 34.7184 38.2318 36.4718 36.4713C38.2253 34.7174 38.7741 32.5886 38.8946 30.1854C39.0351 27.7086 39.0351 20.2914 38.8946 17.8146ZM35.6955 32.843C35.1735 34.1551 34.1629 35.1659 32.8444 35.6947C30.8701 36.478 26.1852 36.2972 24.0033 36.2972C21.8215 36.2972 17.1299 36.4713 15.1623 35.6947C13.8505 35.1726 12.8399 34.1618 12.3112 32.843C11.5282 30.8682 11.7089 26.1823 11.7089 24C11.7089 21.8177 11.5349 17.1251 12.3112 15.157C12.8332 13.8449 13.8438 12.8341 15.1623 12.3053C17.1366 11.522 21.8215 11.7028 24.0033 11.7028C26.1852 11.7028 30.8767 11.5287 32.8444 12.3053C34.1562 12.8274 35.1668 13.8382 35.6955 15.157C36.4785 17.1318 36.2978 21.8177 36.2978 24C36.2978 26.1823 36.4785 30.8749 35.6955 32.843Z" fill="#252A26"/>
</svg>
