<svg width="48" height="48" viewBox="0 0 48 48" fill="none" xmlns="http://www.w3.org/2000/svg">
<path d="M35.7857 9H12.2143C10.4391 9 9 10.4391 9 12.2143V35.7857C9 37.5609 10.4391 39 12.2143 39H35.7857C37.5609 39 39 37.5609 39 35.7857V12.2143C39 10.4391 37.5609 9 35.7857 9ZM20.9275 24.4087C14.8546 20.0014 14.9165 19.9902 13.2857 18.721V17.0357C13.2857 16.1481 14.0052 15.4286 14.8929 15.4286H33.1071C33.9948 15.4286 34.7143 16.1481 34.7143 17.0357V18.721C33.0823 19.9913 33.145 20.0016 27.0725 24.4088C26.3694 24.9214 24.9704 26.1579 24 26.1428C23.0288 26.1574 21.6317 24.9222 20.9275 24.4087ZM34.7143 21.4403V30.9643C34.7143 31.8519 33.9948 32.5714 33.1071 32.5714H14.8929C14.0052 32.5714 13.2857 31.8519 13.2857 30.9643V21.4403C14.2204 22.1631 15.5176 23.1302 19.6676 26.1421C20.616 26.8346 22.2106 28.2947 23.9998 28.2856C25.8003 28.2946 27.4175 26.8097 28.3337 26.1411C32.4827 23.1301 33.7796 22.163 34.7143 21.4403Z" fill="#252A26"/>
</svg>
