<svg width="48" height="48" viewBox="0 0 48 48" fill="none" xmlns="http://www.w3.org/2000/svg">
<path d="M35.7857 9H12.2143C10.4397 9 9 10.4397 9 12.2143V35.7857C9 37.5603 10.4397 39 12.2143 39H35.7857C37.5603 39 39 37.5603 39 35.7857V12.2143C39 10.4397 37.5603 9 35.7857 9ZM32.5112 19.6339C32.5246 19.8214 32.5246 20.0156 32.5246 20.2031C32.5246 26.0089 28.1049 32.6987 20.029 32.6987C17.5379 32.6987 15.2277 31.9754 13.2857 30.7299C13.6406 30.7701 13.9821 30.7835 14.3438 30.7835C16.3996 30.7835 18.2879 30.0871 19.7946 28.9085C17.8661 28.8683 16.2455 27.6027 15.6897 25.8616C16.3661 25.9621 16.9754 25.9621 17.6719 25.7812C15.6629 25.3728 14.1562 23.6049 14.1562 21.4687V21.4152C14.7388 21.7433 15.4219 21.9442 16.1384 21.971C15.536 21.5703 15.0422 21.0267 14.701 20.3887C14.3598 19.7507 14.1819 19.0382 14.183 18.3147C14.183 17.4978 14.3973 16.7478 14.779 16.0982C16.942 18.7634 20.1897 20.5045 23.8326 20.692C23.2098 17.7121 25.4397 15.2946 28.1183 15.2946C29.3839 15.2946 30.5223 15.8237 31.3259 16.6808C32.317 16.4933 33.2679 16.125 34.1116 15.6228C33.7835 16.6406 33.0938 17.4978 32.183 18.0402C33.067 17.9464 33.9241 17.6987 34.7143 17.3571C34.1183 18.2344 33.3683 19.0112 32.5112 19.6339Z" fill="#252A26"/>
</svg>
