<svg width="48" height="48" viewBox="0 0 48 48" fill="none" xmlns="http://www.w3.org/2000/svg">
<path d="M36.8571 9H11.1362C9.95759 9 9 9.97098 9 11.1629V36.8371C9 38.029 9.95759 39 11.1362 39H36.8571C38.0357 39 39 38.029 39 36.8371V11.1629C39 9.97098 38.0357 9 36.8571 9ZM18.067 34.7143H13.6205V20.3973H18.0737V34.7143H18.067ZM15.8437 18.442C14.4174 18.442 13.2656 17.2835 13.2656 15.8638C13.2656 14.4442 14.4174 13.2857 15.8437 13.2857C17.2634 13.2857 18.4219 14.4442 18.4219 15.8638C18.4219 17.2902 17.2701 18.442 15.8437 18.442ZM34.7344 34.7143H30.2879V27.75C30.2879 26.0893 30.2545 23.9531 27.9777 23.9531C25.6607 23.9531 25.3058 25.7612 25.3058 27.6295V34.7143H20.8594V20.3973H25.125V22.3527H25.1853C25.7812 21.2277 27.2344 20.0424 29.3973 20.0424C33.8973 20.0424 34.7344 23.0089 34.7344 26.8661V34.7143Z" fill="#252A26"/>
</svg>
