<svg width="48" height="48" viewBox="0 0 48 48" fill="none" xmlns="http://www.w3.org/2000/svg">
<path d="M21.4888 26.4777C21.4888 27.7701 20.5513 28.1786 19.3996 28.1786H16.3795V24.6362H19.4598C20.7054 24.6429 21.4888 25.1585 21.4888 26.4777ZM20.9732 20.9665C20.9732 19.7812 20.0558 19.5 19.0379 19.5H16.3862V22.5H19.2455C20.2567 22.5 20.9732 22.058 20.9732 20.9665ZM29.8326 22.5201C28.6071 22.5201 27.7902 23.2835 27.7098 24.5089H31.875C31.7612 23.2701 31.1183 22.5201 29.8326 22.5201ZM39 12.2143V35.7857C39 37.5603 37.5603 39 35.7857 39H12.2143C10.4397 39 9 37.5603 9 35.7857V12.2143C9 10.4397 10.4397 9 12.2143 9H35.7857C37.5603 9 39 10.4397 39 12.2143ZM27.1942 19.2455H32.404V17.9799H27.1942V19.2455ZM24.3147 26.6317C24.3147 25.0179 23.5513 23.625 21.971 23.1763C23.1228 22.6272 23.7254 21.9911 23.7254 20.6987C23.7254 18.1406 21.817 17.5179 19.6138 17.5179H13.5536V30.375H19.7879C22.125 30.3616 24.3147 29.2433 24.3147 26.6317ZM34.4464 25.6406C34.4464 22.8884 32.8326 20.5915 29.9196 20.5915C27.0804 20.5915 25.1585 22.721 25.1585 25.5201C25.1585 28.4196 26.9866 30.4085 29.9196 30.4085C32.1429 30.4085 33.5826 29.4107 34.279 27.2746H32.0223C31.7746 28.0714 30.7768 28.4866 30 28.4866C28.5 28.4866 27.7165 27.6094 27.7165 26.1228H34.4263C34.433 25.9688 34.4464 25.8013 34.4464 25.6406Z" fill="#252A26"/>
</svg>
