<svg width="48" height="48" viewBox="0 0 48 48" fill="none" xmlns="http://www.w3.org/2000/svg">
<path d="M19.0343 33.156C19.0343 33.28 18.8952 33.3793 18.7198 33.3793C18.5202 33.3979 18.381 33.2986 18.381 33.156C18.381 33.0319 18.5202 32.9326 18.6956 32.9326C18.877 32.914 19.0343 33.0133 19.0343 33.156ZM17.1532 32.8768C17.1109 33.0009 17.2319 33.1435 17.4133 33.1808C17.5706 33.2428 17.752 33.1808 17.7883 33.0567C17.8246 32.9326 17.7097 32.79 17.5282 32.7341C17.371 32.6907 17.1956 32.7527 17.1532 32.8768ZM19.8266 32.7713C19.6512 32.8148 19.5302 32.9326 19.5484 33.0753C19.5665 33.1994 19.7238 33.28 19.9052 33.2366C20.0806 33.1932 20.2016 33.0753 20.1835 32.9512C20.1653 32.8334 20.002 32.7527 19.8266 32.7713ZM23.8065 9C15.4173 9 9 15.5322 9 24.1362C9 31.0158 13.2218 36.9028 19.252 38.9747C20.0262 39.1174 20.2984 38.6273 20.2984 38.2241C20.2984 37.8395 20.2802 35.718 20.2802 34.4152C20.2802 34.4152 16.0464 35.3457 15.1573 32.5666C15.1573 32.5666 14.4677 30.7614 13.4758 30.2962C13.4758 30.2962 12.0907 29.3223 13.5726 29.3409C13.5726 29.3409 15.0786 29.4649 15.9073 30.9414C17.2319 33.3359 19.4516 32.6473 20.3165 32.2379C20.4556 31.2453 20.8488 30.5567 21.2843 30.1473C17.9032 29.7627 14.4919 29.2602 14.4919 23.2926C14.4919 21.5867 14.9516 20.7306 15.9194 19.6388C15.7621 19.2356 15.248 17.5731 16.0766 15.4267C17.3407 15.0235 20.25 17.1016 20.25 17.1016C21.4597 16.7542 22.7601 16.5743 24.0484 16.5743C25.3367 16.5743 26.6371 16.7542 27.8468 17.1016C27.8468 17.1016 30.756 15.0173 32.0202 15.4267C32.8488 17.5793 32.3347 19.2356 32.1774 19.6388C33.1452 20.7368 33.7379 21.5929 33.7379 23.2926C33.7379 29.2788 30.1754 29.7565 26.7944 30.1473C27.3508 30.6374 27.8226 31.5679 27.8226 33.0257C27.8226 35.1162 27.8044 37.703 27.8044 38.2117C27.8044 38.6149 28.0827 39.105 28.8508 38.9623C34.8992 36.9028 39 31.0158 39 24.1362C39 15.5322 32.1956 9 23.8065 9ZM14.879 30.3955C14.8004 30.4575 14.8185 30.6002 14.9214 30.718C15.0181 30.8173 15.1573 30.8607 15.2359 30.7801C15.3145 30.718 15.2964 30.5753 15.1935 30.4575C15.0968 30.3582 14.9577 30.3148 14.879 30.3955ZM14.2258 29.893C14.1835 29.9736 14.244 30.0729 14.3649 30.1349C14.4617 30.1969 14.5827 30.1783 14.625 30.0915C14.6673 30.0108 14.6069 29.9116 14.4859 29.8496C14.3649 29.8123 14.2681 29.8309 14.2258 29.893ZM16.1855 32.1014C16.0887 32.182 16.125 32.3681 16.2641 32.486C16.4032 32.6287 16.5786 32.6473 16.6573 32.548C16.7359 32.4674 16.6996 32.2813 16.5786 32.1634C16.4456 32.0207 16.2641 32.0021 16.1855 32.1014ZM15.496 31.1895C15.3992 31.2515 15.3992 31.4128 15.496 31.5555C15.5927 31.6982 15.756 31.7602 15.8347 31.6982C15.9315 31.6175 15.9315 31.4562 15.8347 31.3136C15.75 31.1709 15.5927 31.1088 15.496 31.1895Z" fill="#252A26"/>
</svg>
